<mxfile host="app.diagrams.net" modified="2024-10-18T01:27:46.059Z" agent="Mozilla/5.0 (Windows NT 10.0; Win64; x64) AppleWebKit/537.36 (KHTML, like Gecko) Chrome/129.0.0.0 Safari/537.36" etag="ENRr9hgDtHJINHKSKUqz" version="24.4.4" type="github">
  <diagram name="Page-1" id="ZFLj7Jg4ysivPCOOMD_z">
    <mxGraphModel dx="4555" dy="2267" grid="1" gridSize="10" guides="1" tooltips="1" connect="1" arrows="1" fold="1" page="1" pageScale="1" pageWidth="827" pageHeight="1169" math="0" shadow="0">
      <root>
        <mxCell id="0" />
        <mxCell id="1" parent="0" />
        <mxCell id="PZkOkDcS-EeVGK3NjsDm-1" value="BlogUser&#xa;- username&#xa;- email&#xa;- password&#xa;" style="rounded=1;whiteSpace=wrap;html=1;" vertex="1" mxGeometry="1,1,120,60" parent="1" />
        <mxCell id="PZkOkDcS-EeVGK3NjsDm-2" value="Post&#xa;- user&#xa;- text&#xa;- created_at&#xa;" style="rounded=1;whiteSpace=wrap;html=1;" vertex="1" mxGeometry="1,100,120,60" parent="1" />
        <mxCell id="PZkOkDcS-EeVGK3NjsDm-3" value="Comment&#xa;- user&#xa;- text&#xa;- created_at&#xa;- post (FK)&#xa;" style="rounded=1;whiteSpace=wrap;html=1;" vertex="1" mxGeometry="1,200,120,80" parent="1" />
        <mxCell id="PZkOkDcS-EeVGK3NjsDm-4" value="Reply&#xa;- user&#xa;- text&#xa;- created_at&#xa;- comment (FK)&#xa;" style="rounded=1;whiteSpace=wrap;html=1;" vertex="1" mxGeometry="1,300,120,80" parent="1" />
        <mxCell id="PZkOkDcS-EeVGK3NjsDm-5" style="edgeStyle=orthogonalEdgeStyle;rounded=0;orthogonalLoop=1;exitX=0.5;exitY=0;entryX=0.5;entryY=1;" edge="1" parent="1" source="PZkOkDcS-EeVGK3NjsDm-2" target="PZkOkDcS-EeVGK3NjsDm-3" />
        <mxCell id="PZkOkDcS-EeVGK3NjsDm-6" style="edgeStyle=orthogonalEdgeStyle;rounded=0;orthogonalLoop=1;exitX=0.5;exitY=0;entryX=0.5;entryY=1;" edge="1" parent="1" source="PZkOkDcS-EeVGK3NjsDm-3" target="PZkOkDcS-EeVGK3NjsDm-4" />
      </root>
    </mxGraphModel>
  </diagram>
</mxfile>
